#!OML:ASF G:\JayActor3\Patient Classification 1\Patient 1\Session 6\male.ASF
:FULLY-SPECIFIED
:DEGREES
2327
root -0.254713 16.6768 -5.35913 165.731 -79.097 -159.128
lowerback -5.17823 -2.2443 2.98309
upperback -0.464299 -3.23453 1.67046
thorax 2.35494 -1.60285 -0.180931
lowerneck 3.62958 -14.1519 -6.82216
upperneck -9.32146 -18.6466 16.7921
head -1.0538 -9.83803 6.12729
rclavicle -4.7963e-014 9.54166e-015
rhumerus -101.894 51.5434 -130.277
rradius 95.7624
rwrist 24.8184
rhand -61.493 20.5623
rfingers 7.12502
rthumb -33.572 -6.3154
lclavicle -4.7963e-014 9.54166e-015
lhumerus -88.8931 -36.9369 114.394
lradius 97.2094
lwrist -8.23884
lhand -41.9794 -28.4104
lfingers 7.12502
lthumb -14.8753 1.03561
rfemur -16.1637 4.75346 19.2957
rtibia 29.4737
rfoot -20.6751 -12.9503
rtoes 2.27955
lfemur -3.60494 5.7834 -11.7791
ltibia 13.0376
lfoot -14.7981 16.6651
ltoes -3.96166
2328
root -0.259698 16.6773 -5.35819 165.743 -79.1061 -159.144
lowerback -5.18055 -2.2497 2.96787
upperback -0.454462 -3.24119 1.67224
thorax 2.36716 -1.60603 -0.171461
lowerneck 3.657 -14.1754 -6.82682
upperneck -9.30455 -18.6808 16.8042
head -1.04763 -9.85567 6.13088
rclavicle -2.21272e-014 2.48481e-015
rhumerus -102.021 51.6509 -130.462
rradius 95.7301
rwrist 24.7502
rhand -61.4903 20.4779
rfingers 7.12502
rthumb -33.5695 -6.40037
lclavicle -2.21272e-014 2.48481e-015
lhumerus -88.8005 -36.951 114.338
lradius 97.194
lwrist -8.26557
lhand -41.9078 -28.4402
lfingers 7.12502
lthumb -14.8063 1.01088
rfemur -16.1559 4.84866 19.2899
rtibia 29.5038
rfoot -20.734 -13.0633
rtoes 2.23972
lfemur -3.53509 5.72001 -11.7929
ltibia 12.9523
lfoot -14.812 16.7035
ltoes -3.84725
2329
root -0.264167 16.6777 -5.35712 165.72 -79.125 -159.126
lowerback -5.1756 -2.25631 2.95493
upperback -0.442469 -3.24926 1.67352
thorax 2.37735 -1.60989 -0.163589
lowerneck 3.68792 -14.2003 -6.82684
upperneck -9.30047 -18.7155 16.8192
head -1.04585 -9.87441 6.1357
rclavicle 2.12824e-014 4.67144e-015
rhumerus -102.142 51.7571 -130.638
rradius 95.7
rwrist 24.6919
rhand -61.4943 20.3851
rfingers 7.12502
rthumb -33.5732 -6.49235
lclavicle 2.12824e-014 4.67144e-015
lhumerus -88.703 -36.98 114.285
lradius 97.1703
lwrist -8.28623
lhand -41.8335 -28.4699
lfingers 7.12502
lthumb -14.7347 0.986371
rfemur -16.1409 4.93187 19.288
rtibia 29.5287
rfoot -20.7943 -13.1723
rtoes 2.21053
lfemur -3.47048 5.66936 -11.8016
ltibia 12.8762
lfoot -14.8289 16.7143
ltoes -3.71125
2330
root -0.26805 16.678 -5.35589 165.654 -79.1509 -159.069
lowerback -5.15595 -2.26323 2.94558
upperback -0.433406 -3.2573 1.67602
thorax 2.37617 -1.6139 -0.155722
lowerneck 3.72518 -14.2258 -6.82711
upperneck -9.30444 -18.7507 16.8374
head -1.04703 -9.89397 6.14242
rclavicle 7.237e-016 -6.65929e-015
rhumerus -102.265 51.8587 -130.813
rradius 95.6679
rwrist 24.6419
rhand -61.4947 20.2878
rfingers 7.12502
rthumb -33.5736 -6.58958
lclavicle 7.237e-016 -6.65929e-015
lhumerus -88.6102 -37.0196 114.244
lradius 97.1378
lwrist -8.29115
lhand -41.7509 -28.4997
lfingers 7.12502
lthumb -14.6552 0.962366
rfemur -16.1182 5.00727 19.2921
rtibia 29.5459
rfoot -20.8528 -13.2798
rtoes 2.19737
lfemur -3.41535 5.62958 -11.8036
ltibia 12.8143
lfoot -14.84 16.7082
ltoes -3.59946
2331
root -0.271597 16.6783 -5.35443 165.573 -79.1853 -159
lowerback -5.13101 -2.27173 2.93487
upperback -0.421216 -3.26723 1.67954
thorax 2.37534 -1.61882 -0.146003
lowerneck 3.7676 -14.2503 -6.83019
upperneck -9.32313 -18.7832 16.8612
head -1.05277 -9.91308 6.15248
rclavicle -4.25834e-014 1.63997e-015
rhumerus -102.386 51.9677 -130.984
rradius 95.631
rwrist 24.601
rhand -61.49 20.1795
rfingers 7.12502
rthumb -33.5691 -6.6989
lclavicle -4.25834e-014 1.63997e-015
lhumerus -88.5123 -37.0705 114.21
lradius 97.0945
lwrist -8.27904
lhand -41.6597 -28.528
lfingers 7.12502
lthumb -14.5673 0.940513
rfemur -16.0862 5.06818 19.2951
rtibia 29.5555
rfoot -20.9092 -13.376
rtoes 2.20015
lfemur -3.3673 5.5948 -11.8058
ltibia 12.7663
lfoot -14.8518 16.687
ltoes -3.4874
2332
root -0.274814 16.6785 -5.35275 165.495 -79.2244 -158.937
lowerback -5.09758 -2.28024 2.92131
upperback -0.409734 -3.27663 1.68358
thorax 2.36925 -1.6236 -0.133731
lowerneck 3.81446 -14.2737 -6.83745
upperneck -9.35241 -18.8135 16.8882
head -1.06184 -9.93158 6.16502
rclavicle -2.1506e-014 1.20762e-014
rhumerus -102.512 52.0803 -131.158
rradius 95.5864
rwrist 24.5676
rhand -61.4825 20.0741
rfingers 7.12502
rthumb -33.562 -6.80583
lclavicle -2.1506e-014 1.20762e-014
lhumerus -88.42 -37.1314 114.191
lradius 97.0395
lwrist -8.25762
lhand -41.5693 -28.5665
lfingers 7.12502
lthumb -14.4802 0.908296
rfemur -16.0474 5.11785 19.2947
rtibia 29.5566
rfoot -20.9608 -13.4602
rtoes 2.21791
lfemur -3.33094 5.56201 -11.8118
ltibia 12.7371
lfoot -14.86 16.6645
ltoes -3.40544
